<svg width="150" height="179" viewBox="0 0 150 179" fill="none" xmlns="http://www.w3.org/2000/svg">
<path d="M125.408 94.5952C125.322 79.923 131.953 68.865 145.343 60.7113C137.854 49.9546 126.524 44.0383 111.588 42.8981C97.4464 41.7794 81.9742 51.1593 76.309 51.1593C70.3219 51.1593 56.6309 43.2853 45.8584 43.2853C23.6266 43.6296 0 61.0556 0 96.5099C0 106.987 1.90987 117.808 5.72961 128.952C10.8369 143.625 29.2489 179.574 48.4549 178.993C58.4979 178.756 65.6009 171.851 78.6695 171.851C91.3519 171.851 97.9185 178.993 109.12 178.993C128.498 178.713 145.15 146.034 150 131.319C124.013 119.035 125.408 95.3482 125.408 94.5952V94.5952ZM102.854 28.9788C113.734 16.0276 112.747 4.23818 112.425 0C102.811 0.559353 91.6953 6.56164 85.3648 13.9408C78.3906 21.8578 74.2918 31.6465 75.1717 42.683C85.5579 43.479 95.0429 38.1221 102.854 28.9788V28.9788Z" fill="black"/>
</svg>
