<svg width="272" height="272" viewBox="0 0 272 272" fill="none" xmlns="http://www.w3.org/2000/svg">
<path d="M269.355 109.364H258.4V108.8H136V163.2H212.86C201.647 194.868 171.516 217.6 136 217.6C90.9364 217.6 54.4 181.064 54.4 136C54.4 90.9364 90.9364 54.4 136 54.4C156.801 54.4 175.726 62.2472 190.135 75.0652L228.602 36.5976C204.313 13.9604 171.822 0 136 0C60.894 0 0 60.894 0 136C0 211.106 60.894 272 136 272C211.106 272 272 211.106 272 136C272 126.881 271.062 117.98 269.355 109.364Z" fill="#FFC107"/>
<path d="M15.681 72.6988L60.3638 105.468C72.4542 75.5344 101.735 54.4 136 54.4C156.801 54.4 175.726 62.2472 190.135 75.0652L228.603 36.5976C204.313 13.9604 171.823 0 136 0C83.7626 0 38.461 29.4916 15.681 72.6988Z" fill="#FF3D00"/>
<path d="M136.001 272C171.129 272 203.049 258.556 227.182 236.694L185.09 201.076C170.977 211.809 153.731 217.614 136.001 217.6C100.627 217.6 70.5913 195.044 59.2761 163.567L14.9265 197.737C37.4345 241.78 83.1441 272 136.001 272Z" fill="#4CAF50"/>
<path d="M269.355 109.364H258.4V108.8H136V163.2H212.86C207.497 178.272 197.835 191.442 185.069 201.083L185.089 201.069L227.181 236.688C224.203 239.394 272 204 272 136C272 126.881 271.062 117.98 269.355 109.364Z" fill="#1976D2"/>
</svg>
