<svg width="195" height="158" viewBox="0 0 195 158" fill="none" xmlns="http://www.w3.org/2000/svg">
<path d="M194.357 18.7417C187.21 21.9088 179.532 24.0487 171.46 25.016C179.789 20.0324 186.02 12.1889 188.99 2.94898C181.165 7.59683 172.601 10.8684 163.671 12.6215C157.665 6.20909 149.71 1.95885 141.041 0.530638C132.373 -0.897571 123.475 0.576154 115.73 4.72301C107.984 8.86987 101.825 15.4578 98.2071 23.4641C94.5896 31.4704 93.7165 40.447 95.7235 49.0003C79.8682 48.2042 64.3574 44.0832 50.1979 36.9046C36.0384 29.726 23.5465 19.6504 13.5329 7.33157C10.109 13.2378 8.1403 20.0856 8.1403 27.3785C8.13648 33.9437 9.75324 40.4084 12.8471 46.199C15.941 51.9896 20.4163 56.927 25.8761 60.5731C19.5442 60.3716 13.3521 58.6607 7.81503 55.5828V56.0963C7.81439 65.3044 10.9995 74.2291 16.83 81.3561C22.6605 88.4831 30.7771 93.3734 39.8027 95.1972C33.9289 96.7869 27.7707 97.021 21.7931 95.882C24.3396 103.805 29.2999 110.733 35.9797 115.697C42.6595 120.661 50.7242 123.412 59.045 123.564C44.92 134.653 27.4758 140.667 9.51842 140.641C6.33746 140.642 3.15919 140.456 0 140.084C18.2277 151.804 39.4461 158.024 61.1165 158C134.473 158 174.576 97.243 174.576 44.5493C174.576 42.8373 174.533 41.1083 174.456 39.3963C182.256 33.7552 188.99 26.7698 194.34 18.7674L194.357 18.7417V18.7417Z" fill="#D9D9D9"/>
</svg>
